<svg width="370.3614823488981" height="91.86333899142745" viewBox="0 0 370.3614823488981 91.86333899142745"
    class="css-1j8o68f" xmlns="http://www.w3.org/2000/svg">
    <defs id="SvgjsDefs7081"></defs>
    <g id="SvgjsG7082" featurekey="symbolFeature-0"
        transform="matrix(0.09734379336987255,0,0,0.09734379336987255,-0.004867190828922072,0)" fill="#a5dee5">
        <g xmlns="http://www.w3.org/2000/svg">
            <path
                d="M537.5,12.5l-10.9-6.2L1.7,925c-2.2,3.9-2.2,8.6,0,12.5c2.2,3.9,6.3,6.2,10.8,6.2h1050c4.5,0,8.6-2.4,10.8-6.2   s2.3-8.6,0-12.5L548.4,6.3C546.1,2.4,542,0,537.5,0c-4.5,0-8.6,2.4-10.9,6.3L537.5,12.5l-10.9,6.2l514.3,900H34l514.3-900   L537.5,12.5l-10.9,6.2L537.5,12.5z">
            </path>
            <path
                d="M537.5,177.9l-10.9-6.2L143,843c-2.2,3.9-2.2,8.6,0,12.5c2.2,3.9,6.3,6.2,10.8,6.2h767.3c4.5,0,8.6-2.4,10.8-6.2   c2.2-3.9,2.3-8.6,0-12.5L548.4,171.7c-2.2-3.9-6.4-6.3-10.9-6.3s-8.6,2.4-10.9,6.3L537.5,177.9l-10.9,6.2l373,652.7H175.4   l373-652.7L537.5,177.9l-10.9,6.2L537.5,177.9z M537.5,343.2l-10.9,6.2l231.6,405.3H316.8l231.6-405.3L537.5,343.2l-10.9,6.2   L537.5,343.2l-10.9-6.2L284.4,761c-2.2,3.9-2.2,8.6,0,12.5s6.3,6.2,10.8,6.2h484.6c4.5,0,8.6-2.4,10.8-6.2s2.3-8.6,0-12.5   L548.4,337c-2.2-3.9-6.4-6.3-10.9-6.3c-4.5,0-8.6,2.4-10.9,6.3L537.5,343.2z">
            </path>
            <path
                d="M436.6,685.2l10.9,6.2l90.1-157.7l79.4,139l-180.3,0V685.2l10.9,6.2L436.6,685.2v12.5h201.9c4.5,0,8.6-2.4,10.8-6.2   c2.2-3.9,2.3-8.6,0-12.5L548.4,502.3c-2.2-3.9-6.4-6.3-10.9-6.3s-8.6,2.4-10.9,6.3L425.7,679c-2.2,3.9-2.2,8.6,0,12.5   c2.2,3.9,6.3,6.2,10.8,6.2V685.2z">
            </path>
        </g>
    </g>
    <g id="SvgjsG7083" featurekey="nameFeature-0"
        transform="matrix(0.7865317146320626,0,0,0.7865317146320626,123.46382484109361,30.955764114242125)"
        fill="#a5dee5">
        <path
            d="M30.703 38.5937 l7.0313 0 l-13.594 -37.266 l-7.1094 0 l7.8906 22.266 z M1.9531 38.5937 l6.875 0 l8.125 -19.844 l-3.3594 -8.9063 z M71.953 38.5937 l6.5625 0 l0 -27.422 l-6.5625 9.6094 l0 17.813 z M78.51599999999999 1.4059999999999988 l-7.0313 0 l-11.484 17.813 l-11.406 -17.813 l-7.0313 0 l0 37.188 l6.5625 0 l0 -26.406 l11.719 17.578 l0.23438 0 l10.234 -15.156 c0.052109 -0.20836 2.7865 -4.6094 8.2031 -13.203 z M109.14099999999999 1.328000000000003 l0 21.25 c0 3.4375 -0.83336 5.9896 -2.5 7.6563 c-0.88539 0.98961 -2.1094 1.7188 -3.6719 2.1875 l0 6.0938 c1.25 -0.15625 2.3438 -0.41664 3.2813 -0.78125 c1.9271 -0.67711 3.5938 -1.6927 5 -3.0469 c1.4063 -1.5104 2.4479 -3.2552 3.125 -5.2343 c0.78125 -2.0313 1.1719 -4.4271 1.1719 -7.1875 l0 -20.938 l-6.4063 0 z M90.938 1.4059999999999988 l0 21.25 c0 3.3334 0.83336 5.8855 2.5 7.6563 c0.98961 0.98961 2.2136 1.6927 3.672 2.1094 l0 6.1719 c-0.88539 -0.10414 -1.9791 -0.36453 -3.2813 -0.78117 c-1.9791 -0.72914 -3.6198 -1.7708 -4.9219 -3.1249 c-1.4584 -1.3541 -2.5261 -3.0729 -3.2032 -5.1563 c-0.72914 -1.875 -1.0938 -4.2709 -1.0938 -7.1875 l0 -20.938 l6.3281 0 z M143.281 7.5 l11.797 0 l0 -6.0938 l-30.156 0 l0 6.0938 l18.359 0 z M136.719 13.594000000000001 l6.5625 0 l0 25 l-6.5625 0 l0 -25 z M190.703 38.5937 l7.0313 0 l-13.594 -37.266 l-7.1094 0 l7.8906 22.266 z M161.9531 38.5937 l6.875 0 l8.125 -19.844 l-3.3594 -8.9063 z M234.609 25 c-0.36461 -0.98961 -0.88531 -1.8488 -1.5624 -2.578 c-0.46875 -0.52086 -1.224 -1.1198 -2.2656 -1.797 c-1.1459 -0.57289 -2.1615 -1.0156 -3.0469 -1.3281 c0.625 -0.36461 1.3021 -0.78125 2.0313 -1.25 c0.72914 -0.625 1.276 -1.224 1.6406 -1.7969 c0.46875 -0.625 0.85938 -1.3802 1.1719 -2.2656 c0.3125 -0.9375 0.46875 -1.9531 0.46875 -3.0469 c0 -2.9166 -1.0938 -5.2344 -3.2813 -6.9531 s-5.1563 -2.5781 -8.9063 -2.5781 l-14.453 0 l0 5.7813 l13.672 0 c1.9791 0 3.5938 0.41664 4.8438 1.25 c1.0938 0.83336 1.6406 2.0313 1.6406 3.5938 c0 1.7709 -0.625 3.0469 -1.875 3.8281 c-1.3021 0.83336 -2.9948 1.25 -5.0782 1.25 l-13.203 0 l0 5.4688 l14.609 0 c2.5 0 4.401 0.44273 5.7031 1.3281 c1.25 0.9375 1.875 2.1875 1.875 3.75 c0 1.6666 -0.625 2.9427 -1.875 3.828 c-1.3021 0.88539 -3.0469 1.3281 -5.2344 1.3281 l-15.078 0 l0 5.7813 l15 0 c2.0313 0 3.9063 -0.23438 5.625 -0.70313 c1.7709 -0.52086 3.2031 -1.1719 4.2969 -1.9531 s2.0313 -1.849 2.8125 -3.2031 c0.625 -1.25 0.9375 -2.7084 0.9375 -4.375 c0 -1.3021 -0.15625 -2.4219 -0.46875 -3.3594 z M247.0313 1.4059999999999988 l6.4063 0 l0 31.25 l19.531 0 l0 5.9375 l-25.938 0 l0 -37.188 z M286.0938 1.4059999999999988 l27.813 0 l0 5.9375 l-27.813 0 l0 -5.9375 z M286.0938 32.6562 l27.734 0 l0 5.9375 l-27.734 0 l0 -5.9375 z M286.0938 16.875 l25.078 0 l0 5.8594 l-25.078 0 l0 -5.8594 z">
        </path>
    </g>
</svg>